<svg width="664" height="664" viewBox="0 0 664 664" fill="none" xmlns="http://www.w3.org/2000/svg">
<path d="M152.966 1.10156H511.031C595.164 1.10156 662.896 68.8327 662.896 152.966V511.031C662.896 595.164 595.164 662.895 511.031 662.895H152.966C68.833 662.895 1.10156 595.164 1.10156 511.031V152.966C1.10156 68.8327 68.833 1.10156 152.966 1.10156Z" fill="url(#paint0_linear_1908_6596)"/>
<path d="M500 156H164C149.153 156.016 134.918 161.921 124.42 172.42C113.921 182.918 108.016 197.153 108 212V452C108.016 466.847 113.921 481.082 124.42 491.58C134.918 502.079 149.153 507.984 164 508H500C514.847 507.984 529.082 502.079 539.58 491.58C550.079 481.082 555.984 466.847 556 452V212C555.984 197.153 550.079 182.918 539.58 172.42C529.082 161.921 514.847 156.016 500 156ZM485.82 248.63L341.82 360.63C339.012 362.813 335.557 363.998 332 363.998C328.443 363.998 324.988 362.813 322.18 360.63L178.18 248.63C176.488 247.352 175.067 245.751 173.999 243.92C172.932 242.088 172.239 240.062 171.96 237.961C171.682 235.859 171.825 233.723 172.379 231.676C172.934 229.63 173.89 227.715 175.191 226.041C176.492 224.367 178.113 222.969 179.96 221.927C181.806 220.885 183.841 220.221 185.947 219.972C188.052 219.724 190.186 219.896 192.224 220.479C194.263 221.063 196.165 222.045 197.82 223.37L332 327.73L466.18 223.37C469.535 220.836 473.753 219.725 477.921 220.276C482.089 220.828 485.873 222.998 488.453 226.317C491.034 229.636 492.205 233.838 491.712 238.014C491.219 242.189 489.103 246.003 485.82 248.63Z" fill="white"/>
<defs>
<linearGradient id="paint0_linear_1908_6596" x1="336.632" y1="660.239" x2="337.276" y2="9.09097" gradientUnits="userSpaceOnUse">
<stop stop-color="#FD460E"/>
<stop offset="1" stop-color="#FD8D0E"/>
</linearGradient>
</defs>
</svg>
